<?xml version="1.0" encoding="UTF-8" standalone="no"?>
<!DOCTYPE svg PUBLIC "-//W3C//DTD SVG 1.1//EN"
 "http://www.w3.org/Graphics/SVG/1.1/DTD/svg11.dtd">
<!-- Generated by graphviz version 2.24.0 (20090616.2323)
 -->
<!-- Title: FieldML Pages: 1 -->
<svg width="2530pt" height="1791pt"
 viewBox="0.00 0.00 2530.00 1791.05" xmlns="http://www.w3.org/2000/svg" xmlns:xlink="http://www.w3.org/1999/xlink">
<g id="graph1" class="graph" transform="scale(1 1) rotate(0) translate(4 1787.05)">
<title>FieldML</title>
<polygon fill="white" stroke="white" points="-4,5 -4,-1787.05 2527,-1787.05 2527,5 -4,5"/>
<!-- fieldml.domain.EnsembleDomain@dc840f -->
<g id="node1" class="node"><title>fieldml.domain.EnsembleDomain@dc840f</title>
<polygon fill="none" stroke="black" points="1953,-92 1785,-92 1785,-36 1953,-36 1953,-92"/>
<text text-anchor="start" x="1784.5" y="-75.4" font-family="Times New Roman,serif" font-size="14.00">EnsembleDomain</text>
<text text-anchor="start" x="1784.5" y="-59.4" font-family="Times New Roman,serif" font-size="14.00">values: ... 1 2 3 4 5</text>
<text text-anchor="start" x="1784.5" y="-43.4" font-family="Times New Roman,serif" font-size="14.00">name = test_mesh.elements</text>
</g>
<!-- fieldml.domain.EnsembleDomain@1621e42 -->
<g id="node2" class="node"><title>fieldml.domain.EnsembleDomain@1621e42</title>
<polygon fill="none" stroke="black" points="975,-92 829,-92 829,-36 975,-36 975,-92"/>
<text text-anchor="start" x="828.5" y="-75.4" font-family="Times New Roman,serif" font-size="14.00">EnsembleDomain</text>
<text text-anchor="start" x="828.5" y="-59.4" font-family="Times New Roman,serif" font-size="14.00">values: ... 1 2 3 4 5 6 7</text>
<text text-anchor="start" x="828.5" y="-43.4" font-family="Times New Roman,serif" font-size="14.00">name = test_mesh.dofs</text>
</g>
<!-- fieldml.domain.EnsembleDomain@b09e89 -->
<g id="node3" class="node"><title>fieldml.domain.EnsembleDomain@b09e89</title>
<polygon fill="none" stroke="black" points="2166,-92 2012,-92 2012,-36 2166,-36 2166,-92"/>
<text text-anchor="start" x="2011.5" y="-75.4" font-family="Times New Roman,serif" font-size="14.00">EnsembleDomain</text>
<text text-anchor="start" x="2011.5" y="-59.4" font-family="Times New Roman,serif" font-size="14.00">values: ... 1 2 3 4 5 6</text>
<text text-anchor="start" x="2011.5" y="-43.4" font-family="Times New Roman,serif" font-size="14.00">name = test_mesh.nodes</text>
</g>
<!-- fieldml.domain.MeshDomain@1787038 -->
<g id="node4" class="node"><title>fieldml.domain.MeshDomain@1787038</title>
<polygon fill="none" stroke="black" points="1924,-1199 1700,-1199 1700,-1111 1924,-1111 1924,-1199"/>
<text text-anchor="start" x="1699.5" y="-1182.4" font-family="Times New Roman,serif" font-size="14.00">MeshDomain</text>
<text text-anchor="start" x="1699.5" y="-1166.4" font-family="Times New Roman,serif" font-size="14.00">dimensions = 1</text>
<text text-anchor="start" x="1699.5" y="-1150.4" font-family="Times New Roman,serif" font-size="14.00">elementDomain = test_mesh.elements</text>
<text text-anchor="start" x="1699.5" y="-1134.4" font-family="Times New Roman,serif" font-size="14.00">shapes: ...</text>
<text text-anchor="start" x="1699.5" y="-1118.4" font-family="Times New Roman,serif" font-size="14.00">name = test_mesh.domain</text>
</g>
<!-- fieldml.domain.MeshDomain@1787038&#45;&gt;fieldml.domain.EnsembleDomain@dc840f -->
<g id="edge2" class="edge"><title>fieldml.domain.MeshDomain@1787038&#45;&gt;fieldml.domain.EnsembleDomain@dc840f</title>
<path fill="none" stroke="black" d="M1820.28,-1110.67C1843.4,-981.853 1905.95,-596.312 1890,-275 1887,-214.497 1879.18,-144.594 1873.97,-102.375"/>
<polygon fill="black" stroke="black" points="1877.42,-101.75 1872.71,-92.2602 1870.48,-102.617 1877.42,-101.75"/>
</g>
<!-- fieldml.evaluator.ContinuousParameters@fa9cf -->
<g id="node6" class="node"><title>fieldml.evaluator.ContinuousParameters@fa9cf</title>
<polygon fill="none" stroke="black" points="1765,-379 1427,-379 1427,-275 1765,-275 1765,-379"/>
<text text-anchor="start" x="1426.5" y="-362.4" font-family="Times New Roman,serif" font-size="14.00">ContinuousParameters</text>
<text text-anchor="start" x="1426.5" y="-346.4" font-family="Times New Roman,serif" font-size="14.00">parameterDomains: ... test_mesh.elements test_mesh.dofs</text>
<text text-anchor="start" x="1426.5" y="-330.4" font-family="Times New Roman,serif" font-size="14.00">defaultValue = [0.0]</text>
<text text-anchor="start" x="1426.5" y="-314.4" font-family="Times New Roman,serif" font-size="14.00">entries: ...</text>
<text text-anchor="start" x="1426.5" y="-298.4" font-family="Times New Roman,serif" font-size="14.00">name = test_mesh.element_dof_map.p1</text>
<text text-anchor="start" x="1426.5" y="-282.4" font-family="Times New Roman,serif" font-size="14.00">valueDomain = library.weighting.1d</text>
</g>
<!-- fieldml.evaluator.ContinuousParameters@fa9cf&#45;&gt;fieldml.domain.EnsembleDomain@dc840f -->
<g id="edge4" class="edge"><title>fieldml.evaluator.ContinuousParameters@fa9cf&#45;&gt;fieldml.domain.EnsembleDomain@dc840f</title>
<path fill="none" stroke="black" d="M1650.26,-274.725C1704.17,-222.789 1785.37,-144.566 1832.18,-99.4709"/>
<polygon fill="black" stroke="black" points="1834.89,-101.716 1839.67,-92.2577 1830.04,-96.6751 1834.89,-101.716"/>
</g>
<!-- fieldml.evaluator.ContinuousParameters@fa9cf&#45;&gt;fieldml.domain.EnsembleDomain@1621e42 -->
<g id="edge6" class="edge"><title>fieldml.evaluator.ContinuousParameters@fa9cf&#45;&gt;fieldml.domain.EnsembleDomain@1621e42</title>
<path fill="none" stroke="black" d="M1458.47,-274.883C1317.22,-221.354 1101.97,-139.781 984.89,-95.412"/>
<polygon fill="black" stroke="black" points="985.843,-92.0306 975.252,-91.7597 983.363,-98.5764 985.843,-92.0306"/>
</g>
<!-- fieldml.value.ContinuousDomainValue@55571e -->
<g id="node10" class="node"><title>fieldml.value.ContinuousDomainValue@55571e</title>
<ellipse fill="none" stroke="black" cx="1578" cy="-64" rx="189.171" ry="18"/>
<text text-anchor="middle" x="1578" y="-59.4" font-family="Times New Roman,serif" font-size="14.00">fieldml.value.ContinuousDomainValue@55571e</text>
</g>
<!-- fieldml.evaluator.ContinuousParameters@fa9cf&#45;&gt;fieldml.value.ContinuousDomainValue@55571e -->
<g id="edge8" class="edge"><title>fieldml.evaluator.ContinuousParameters@fa9cf&#45;&gt;fieldml.value.ContinuousDomainValue@55571e</title>
<path fill="none" stroke="black" d="M1592.42,-274.725C1588.67,-219.9 1582.91,-135.783 1579.93,-92.2633"/>
<polygon fill="black" stroke="black" points="1583.41,-91.854 1579.24,-82.1163 1576.43,-92.332 1583.41,-91.854"/>
</g>
<!-- fieldml.domain.ContinuousDomain@ca8327 -->
<g id="node12" class="node"><title>fieldml.domain.ContinuousDomain@ca8327</title>
<ellipse fill="none" stroke="black" cx="580" cy="-64" rx="175.926" ry="18"/>
<text text-anchor="middle" x="580" y="-59.4" font-family="Times New Roman,serif" font-size="14.00">fieldml.domain.ContinuousDomain@ca8327</text>
</g>
<!-- fieldml.evaluator.ContinuousParameters@fa9cf&#45;&gt;fieldml.domain.ContinuousDomain@ca8327 -->
<g id="edge10" class="edge"><title>fieldml.evaluator.ContinuousParameters@fa9cf&#45;&gt;fieldml.domain.ContinuousDomain@ca8327</title>
<path fill="none" stroke="black" d="M1426.93,-277.441C1423.93,-276.617 1420.95,-275.802 1418,-275 1140.44,-199.543 808.613,-118.765 659.472,-82.9566"/>
<polygon fill="black" stroke="black" points="660.024,-79.4899 649.484,-80.5602 658.391,-86.2967 660.024,-79.4899"/>
</g>
<!-- fieldml.evaluator.ContinuousParameters@16897b2 -->
<g id="node13" class="node"><title>fieldml.evaluator.ContinuousParameters@16897b2</title>
<polygon fill="none" stroke="black" points="693,-379 355,-379 355,-275 693,-275 693,-379"/>
<text text-anchor="start" x="354.5" y="-362.4" font-family="Times New Roman,serif" font-size="14.00">ContinuousParameters</text>
<text text-anchor="start" x="354.5" y="-346.4" font-family="Times New Roman,serif" font-size="14.00">parameterDomains: ... test_mesh.elements test_mesh.dofs</text>
<text text-anchor="start" x="354.5" y="-330.4" font-family="Times New Roman,serif" font-size="14.00">defaultValue = [0.0]</text>
<text text-anchor="start" x="354.5" y="-314.4" font-family="Times New Roman,serif" font-size="14.00">entries: ...</text>
<text text-anchor="start" x="354.5" y="-298.4" font-family="Times New Roman,serif" font-size="14.00">name = test_mesh.element_dof_map.p2</text>
<text text-anchor="start" x="354.5" y="-282.4" font-family="Times New Roman,serif" font-size="14.00">valueDomain = library.weighting.1d</text>
</g>
<!-- fieldml.evaluator.ContinuousParameters@16897b2&#45;&gt;fieldml.domain.EnsembleDomain@dc840f -->
<g id="edge12" class="edge"><title>fieldml.evaluator.ContinuousParameters@16897b2&#45;&gt;fieldml.domain.EnsembleDomain@dc840f</title>
<path fill="none" stroke="black" d="M693.276,-285.204C709.043,-281.626 724.802,-278.169 740,-275 1194.49,-180.245 1319.37,-199.966 1775.17,-92.1089"/>
<polygon fill="black" stroke="black" points="1776.05,-95.4974 1784.97,-89.7821 1774.43,-88.6867 1776.05,-95.4974"/>
</g>
<!-- fieldml.evaluator.ContinuousParameters@16897b2&#45;&gt;fieldml.domain.EnsembleDomain@1621e42 -->
<g id="edge14" class="edge"><title>fieldml.evaluator.ContinuousParameters@16897b2&#45;&gt;fieldml.domain.EnsembleDomain@1621e42</title>
<path fill="none" stroke="black" d="M599.133,-274.725C674.651,-222.182 788.839,-142.734 853.272,-97.9031"/>
<polygon fill="black" stroke="black" points="855.433,-100.664 861.642,-92.0796 851.435,-94.9179 855.433,-100.664"/>
</g>
<!-- fieldml.evaluator.ContinuousParameters@16897b2&#45;&gt;fieldml.domain.ContinuousDomain@ca8327 -->
<g id="edge18" class="edge"><title>fieldml.evaluator.ContinuousParameters@16897b2&#45;&gt;fieldml.domain.ContinuousDomain@ca8327</title>
<path fill="none" stroke="black" d="M535.131,-274.725C546.829,-219.784 564.791,-135.426 574.041,-91.9873"/>
<polygon fill="black" stroke="black" points="577.483,-92.626 576.143,-82.1163 570.637,-91.1681 577.483,-92.626"/>
</g>
<!-- fieldml.value.ContinuousDomainValue@1bf6770 -->
<g id="node17" class="node"><title>fieldml.value.ContinuousDomainValue@1bf6770</title>
<ellipse fill="none" stroke="black" cx="193" cy="-64" rx="193.196" ry="18"/>
<text text-anchor="middle" x="193" y="-59.4" font-family="Times New Roman,serif" font-size="14.00">fieldml.value.ContinuousDomainValue@1bf6770</text>
</g>
<!-- fieldml.evaluator.ContinuousParameters@16897b2&#45;&gt;fieldml.value.ContinuousDomainValue@1bf6770 -->
<g id="edge16" class="edge"><title>fieldml.evaluator.ContinuousParameters@16897b2&#45;&gt;fieldml.value.ContinuousDomainValue@1bf6770</title>
<path fill="none" stroke="black" d="M458.209,-274.725C387.162,-218.274 277.03,-130.767 223.834,-88.4998"/>
<polygon fill="black" stroke="black" points="225.807,-85.597 215.8,-82.1163 221.453,-91.0776 225.807,-85.597"/>
</g>
<!-- fieldml.evaluator.ContinuousParameters@1201a25 -->
<g id="node19" class="node"><title>fieldml.evaluator.ContinuousParameters@1201a25</title>
<polygon fill="none" stroke="black" points="1409,-379 1071,-379 1071,-275 1409,-275 1409,-379"/>
<text text-anchor="start" x="1070.5" y="-362.4" font-family="Times New Roman,serif" font-size="14.00">ContinuousParameters</text>
<text text-anchor="start" x="1070.5" y="-346.4" font-family="Times New Roman,serif" font-size="14.00">parameterDomains: ... test_mesh.elements test_mesh.dofs</text>
<text text-anchor="start" x="1070.5" y="-330.4" font-family="Times New Roman,serif" font-size="14.00">defaultValue = [0.0]</text>
<text text-anchor="start" x="1070.5" y="-314.4" font-family="Times New Roman,serif" font-size="14.00">entries: ...</text>
<text text-anchor="start" x="1070.5" y="-298.4" font-family="Times New Roman,serif" font-size="14.00">name = test_mesh.element_dof_map.p3</text>
<text text-anchor="start" x="1070.5" y="-282.4" font-family="Times New Roman,serif" font-size="14.00">valueDomain = library.weighting.1d</text>
</g>
<!-- fieldml.evaluator.ContinuousParameters@1201a25&#45;&gt;fieldml.domain.EnsembleDomain@dc840f -->
<g id="edge20" class="edge"><title>fieldml.evaluator.ContinuousParameters@1201a25&#45;&gt;fieldml.domain.EnsembleDomain@dc840f</title>
<path fill="none" stroke="black" d="M1364.65,-274.883C1492.06,-221.607 1685.92,-140.551 1792.36,-96.0433"/>
<polygon fill="black" stroke="black" points="1793.88,-99.2018 1801.76,-92.115 1791.18,-92.7436 1793.88,-99.2018"/>
</g>
<!-- fieldml.evaluator.ContinuousParameters@1201a25&#45;&gt;fieldml.domain.EnsembleDomain@1621e42 -->
<g id="edge22" class="edge"><title>fieldml.evaluator.ContinuousParameters@1201a25&#45;&gt;fieldml.domain.EnsembleDomain@1621e42</title>
<path fill="none" stroke="black" d="M1172.82,-274.725C1105.66,-222.468 1004.3,-143.598 946.516,-98.6379"/>
<polygon fill="black" stroke="black" points="948.358,-95.6365 938.316,-92.2577 944.059,-101.161 948.358,-95.6365"/>
</g>
<!-- fieldml.evaluator.ContinuousParameters@1201a25&#45;&gt;fieldml.domain.ContinuousDomain@ca8327 -->
<g id="edge26" class="edge"><title>fieldml.evaluator.ContinuousParameters@1201a25&#45;&gt;fieldml.domain.ContinuousDomain@ca8327</title>
<path fill="none" stroke="black" d="M1109.21,-274.883C963.952,-216.999 736.399,-126.323 633.596,-85.3571"/>
<polygon fill="black" stroke="black" points="634.629,-82.0011 624.044,-81.5507 632.037,-88.5039 634.629,-82.0011"/>
</g>
<!-- fieldml.value.ContinuousDomainValue@94948a -->
<g id="node23" class="node"><title>fieldml.value.ContinuousDomainValue@94948a</title>
<ellipse fill="none" stroke="black" cx="1182" cy="-64" rx="189.171" ry="18"/>
<text text-anchor="middle" x="1182" y="-59.4" font-family="Times New Roman,serif" font-size="14.00">fieldml.value.ContinuousDomainValue@94948a</text>
</g>
<!-- fieldml.evaluator.ContinuousParameters@1201a25&#45;&gt;fieldml.value.ContinuousDomainValue@94948a -->
<g id="edge24" class="edge"><title>fieldml.evaluator.ContinuousParameters@1201a25&#45;&gt;fieldml.value.ContinuousDomainValue@94948a</title>
<path fill="none" stroke="black" d="M1228.47,-274.725C1216.36,-219.784 1197.75,-135.426 1188.17,-91.9873"/>
<polygon fill="black" stroke="black" points="1191.57,-91.1279 1186,-82.1163 1184.73,-92.6355 1191.57,-91.1279"/>
</g>
<!-- fieldml.evaluator.ContinuousParameters@a401c2 -->
<g id="node25" class="node"><title>fieldml.evaluator.ContinuousParameters@a401c2</title>
<polygon fill="none" stroke="black" points="977,-371 749,-371 749,-283 977,-283 977,-371"/>
<text text-anchor="start" x="749" y="-354.4" font-family="Times New Roman,serif" font-size="14.00">ContinuousParameters</text>
<text text-anchor="start" x="749" y="-338.4" font-family="Times New Roman,serif" font-size="14.00">parameterDomains: ... test_mesh.dofs</text>
<text text-anchor="start" x="749" y="-322.4" font-family="Times New Roman,serif" font-size="14.00">entries: ...</text>
<text text-anchor="start" x="749" y="-306.4" font-family="Times New Roman,serif" font-size="14.00">name = test_mesh.dofs.z</text>
<text text-anchor="start" x="749" y="-290.4" font-family="Times New Roman,serif" font-size="14.00">valueDomain = library.weighting.1d</text>
</g>
<!-- fieldml.evaluator.ContinuousParameters@a401c2&#45;&gt;fieldml.domain.EnsembleDomain@1621e42 -->
<g id="edge28" class="edge"><title>fieldml.evaluator.ContinuousParameters@a401c2&#45;&gt;fieldml.domain.EnsembleDomain@1621e42</title>
<path fill="none" stroke="black" d="M869.528,-282.98C877.023,-232.437 889.197,-150.34 896.317,-102.325"/>
<polygon fill="black" stroke="black" points="899.794,-102.737 897.799,-92.332 892.87,-101.71 899.794,-102.737"/>
</g>
<!-- fieldml.evaluator.ContinuousParameters@a401c2&#45;&gt;fieldml.domain.ContinuousDomain@ca8327 -->
<g id="edge30" class="edge"><title>fieldml.evaluator.ContinuousParameters@a401c2&#45;&gt;fieldml.domain.ContinuousDomain@ca8327</title>
<path fill="none" stroke="black" d="M815.632,-282.98C755.862,-227.434 655.083,-133.777 607.043,-89.1314"/>
<polygon fill="black" stroke="black" points="609.234,-86.3896 599.526,-82.1459 604.468,-91.5173 609.234,-86.3896"/>
</g>
<!-- fieldml.evaluator.composite.ContinuousCompositeEvaluator@16f8cd0 -->
<g id="node28" class="node"><title>fieldml.evaluator.composite.ContinuousCompositeEvaluator@16f8cd0</title>
<polygon fill="none" stroke="black" points="1742,-917 1492,-917 1492,-829 1742,-829 1742,-917"/>
<text text-anchor="start" x="1492" y="-900.4" font-family="Times New Roman,serif" font-size="14.00">ContinuousCompositeEvaluator</text>
<text text-anchor="start" x="1492" y="-884.4" font-family="Times New Roman,serif" font-size="14.00">parameterDomains: ... test_mesh.elements</text>
<text text-anchor="start" x="1492" y="-868.4" font-family="Times New Roman,serif" font-size="14.00">operations: ...</text>
<text text-anchor="start" x="1492" y="-852.4" font-family="Times New Roman,serif" font-size="14.00">name = test_mesh.element.p1</text>
<text text-anchor="start" x="1492" y="-836.4" font-family="Times New Roman,serif" font-size="14.00">valueDomain = library.weighting.1d</text>
</g>
<!-- fieldml.evaluator.composite.ContinuousCompositeEvaluator@16f8cd0&#45;&gt;fieldml.domain.EnsembleDomain@dc840f -->
<g id="edge32" class="edge"><title>fieldml.evaluator.composite.ContinuousCompositeEvaluator@16f8cd0&#45;&gt;fieldml.domain.EnsembleDomain@dc840f</title>
<path fill="none" stroke="black" d="M1683.19,-828.927C1737.57,-788.524 1810.98,-723.332 1845,-646 1887.95,-548.366 1876.41,-216.465 1871.02,-102.663"/>
<polygon fill="black" stroke="black" points="1874.5,-102.165 1870.52,-92.3462 1867.51,-102.504 1874.5,-102.165"/>
</g>
<!-- fieldml.evaluator.composite.ContinuousCompositeEvaluator@16f8cd0&#45;&gt;fieldml.domain.ContinuousDomain@ca8327 -->
<g id="edge42" class="edge"><title>fieldml.evaluator.composite.ContinuousCompositeEvaluator@16f8cd0&#45;&gt;fieldml.domain.ContinuousDomain@ca8327</title>
<path fill="none" stroke="black" d="M1491.96,-831.426C1488.95,-830.592 1485.96,-829.782 1483,-829 1085.83,-724.072 931.765,-853.117 577,-646 409.256,-548.068 267.06,-452.475 346,-275 385.17,-186.938 481.265,-120.146 537.374,-87.0588"/>
<polygon fill="black" stroke="black" points="539.462,-89.8936 546.356,-81.8484 535.95,-83.8386 539.462,-89.8936"/>
</g>
<!-- fieldml.evaluator.composite.MappedImportOperation@85af80 -->
<g id="node31" class="node"><title>fieldml.evaluator.composite.MappedImportOperation@85af80</title>
<polygon fill="none" stroke="black" points="1637,-646 1369,-646 1369,-574 1637,-574 1637,-646"/>
<text text-anchor="start" x="1368.5" y="-629.4" font-family="Times New Roman,serif" font-size="14.00">MappedImportOperation</text>
<text text-anchor="start" x="1368.5" y="-613.4" font-family="Times New Roman,serif" font-size="14.00">sourceField = test_mesh.dofs.z</text>
<text text-anchor="start" x="1368.5" y="-597.4" font-family="Times New Roman,serif" font-size="14.00">weightings = test_mesh.element_dof_map.p1</text>
<text text-anchor="start" x="1368.5" y="-581.4" font-family="Times New Roman,serif" font-size="14.00">iteratedDomain = test_mesh.dofs</text>
</g>
<!-- fieldml.evaluator.composite.ContinuousCompositeEvaluator@16f8cd0&#45;&gt;fieldml.evaluator.composite.MappedImportOperation@85af80 -->
<g id="edge34" class="edge"><title>fieldml.evaluator.composite.ContinuousCompositeEvaluator@16f8cd0&#45;&gt;fieldml.evaluator.composite.MappedImportOperation@85af80</title>
<path fill="none" stroke="black" d="M1597.92,-828.98C1577.06,-780.861 1543.81,-704.142 1522.71,-655.461"/>
<polygon fill="black" stroke="black" points="1525.84,-653.899 1518.65,-646.115 1519.42,-656.682 1525.84,-653.899"/>
</g>
<!-- fieldml.evaluator.composite.MappedImportOperation@85af80&#45;&gt;fieldml.domain.EnsembleDomain@1621e42 -->
<g id="edge40" class="edge"><title>fieldml.evaluator.composite.MappedImportOperation@85af80&#45;&gt;fieldml.domain.EnsembleDomain@1621e42</title>
<path fill="none" stroke="black" d="M1384.33,-573.942C1286.06,-538.593 1148.93,-475.765 1062,-379 1028.8,-342.04 1042.37,-319.856 1021,-275 991.009,-212.035 949.938,-142.105 924.727,-100.655"/>
<polygon fill="black" stroke="black" points="927.644,-98.7152 919.445,-92.0051 921.67,-102.364 927.644,-98.7152"/>
</g>
<!-- fieldml.evaluator.composite.MappedImportOperation@85af80&#45;&gt;fieldml.evaluator.ContinuousParameters@fa9cf -->
<g id="edge38" class="edge"><title>fieldml.evaluator.composite.MappedImportOperation@85af80&#45;&gt;fieldml.evaluator.ContinuousParameters@fa9cf</title>
<path fill="none" stroke="black" d="M1514.87,-573.87C1530.2,-527.245 1557.09,-445.407 1575.69,-388.809"/>
<polygon fill="black" stroke="black" points="1579.03,-389.844 1578.83,-379.251 1572.38,-387.659 1579.03,-389.844"/>
</g>
<!-- fieldml.evaluator.composite.MappedImportOperation@85af80&#45;&gt;fieldml.evaluator.ContinuousParameters@a401c2 -->
<g id="edge36" class="edge"><title>fieldml.evaluator.composite.MappedImportOperation@85af80&#45;&gt;fieldml.evaluator.ContinuousParameters@a401c2</title>
<path fill="none" stroke="black" d="M1421.29,-573.87C1307.05,-523.354 1099.32,-431.5 972.001,-375.199"/>
<polygon fill="black" stroke="black" points="973.157,-371.883 962.596,-371.04 970.326,-378.285 973.157,-371.883"/>
</g>
<!-- fieldml.evaluator.composite.ContinuousCompositeEvaluator@c51355 -->
<g id="node36" class="node"><title>fieldml.evaluator.composite.ContinuousCompositeEvaluator@c51355</title>
<polygon fill="none" stroke="black" points="824,-917 574,-917 574,-829 824,-829 824,-917"/>
<text text-anchor="start" x="574" y="-900.4" font-family="Times New Roman,serif" font-size="14.00">ContinuousCompositeEvaluator</text>
<text text-anchor="start" x="574" y="-884.4" font-family="Times New Roman,serif" font-size="14.00">parameterDomains: ... test_mesh.elements</text>
<text text-anchor="start" x="574" y="-868.4" font-family="Times New Roman,serif" font-size="14.00">operations: ...</text>
<text text-anchor="start" x="574" y="-852.4" font-family="Times New Roman,serif" font-size="14.00">name = test_mesh.element.p2</text>
<text text-anchor="start" x="574" y="-836.4" font-family="Times New Roman,serif" font-size="14.00">valueDomain = library.weighting.1d</text>
</g>
<!-- fieldml.evaluator.composite.ContinuousCompositeEvaluator@c51355&#45;&gt;fieldml.domain.EnsembleDomain@dc840f -->
<g id="edge44" class="edge"><title>fieldml.evaluator.composite.ContinuousCompositeEvaluator@c51355&#45;&gt;fieldml.domain.EnsembleDomain@dc840f</title>
<path fill="none" stroke="black" d="M824.065,-831.515C827.068,-830.654 830.05,-829.814 833,-829 1190.02,-730.447 1356.29,-876.746 1646,-646 1822.34,-505.55 1859.36,-208.224 1867.03,-102.394"/>
<polygon fill="black" stroke="black" points="1870.53,-102.396 1867.72,-92.1825 1863.55,-101.923 1870.53,-102.396"/>
</g>
<!-- fieldml.evaluator.composite.ContinuousCompositeEvaluator@c51355&#45;&gt;fieldml.domain.ContinuousDomain@ca8327 -->
<g id="edge54" class="edge"><title>fieldml.evaluator.composite.ContinuousCompositeEvaluator@c51355&#45;&gt;fieldml.domain.ContinuousDomain@ca8327</title>
<path fill="none" stroke="black" d="M573.966,-843.662C473.637,-812.816 339.299,-753.359 275,-646 190.278,-504.542 198.449,-421.042 275,-275 326.637,-176.487 447.463,-114.849 520.59,-85.1767"/>
<polygon fill="black" stroke="black" points="522.146,-88.3246 530.141,-81.3728 519.556,-81.8214 522.146,-88.3246"/>
</g>
<!-- fieldml.evaluator.composite.MappedImportOperation@787171 -->
<g id="node39" class="node"><title>fieldml.evaluator.composite.MappedImportOperation@787171</title>
<polygon fill="none" stroke="black" points="854,-646 586,-646 586,-574 854,-574 854,-646"/>
<text text-anchor="start" x="585.5" y="-629.4" font-family="Times New Roman,serif" font-size="14.00">MappedImportOperation</text>
<text text-anchor="start" x="585.5" y="-613.4" font-family="Times New Roman,serif" font-size="14.00">sourceField = test_mesh.dofs.z</text>
<text text-anchor="start" x="585.5" y="-597.4" font-family="Times New Roman,serif" font-size="14.00">weightings = test_mesh.element_dof_map.p2</text>
<text text-anchor="start" x="585.5" y="-581.4" font-family="Times New Roman,serif" font-size="14.00">iteratedDomain = test_mesh.dofs</text>
</g>
<!-- fieldml.evaluator.composite.ContinuousCompositeEvaluator@c51355&#45;&gt;fieldml.evaluator.composite.MappedImportOperation@787171 -->
<g id="edge46" class="edge"><title>fieldml.evaluator.composite.ContinuousCompositeEvaluator@c51355&#45;&gt;fieldml.evaluator.composite.MappedImportOperation@787171</title>
<path fill="none" stroke="black" d="M702.515,-828.98C706.333,-781.162 712.407,-705.099 716.297,-656.377"/>
<polygon fill="black" stroke="black" points="719.809,-656.362 717.116,-646.115 712.831,-655.805 719.809,-656.362"/>
</g>
<!-- fieldml.evaluator.composite.MappedImportOperation@787171&#45;&gt;fieldml.domain.EnsembleDomain@1621e42 -->
<g id="edge52" class="edge"><title>fieldml.evaluator.composite.MappedImportOperation@787171&#45;&gt;fieldml.domain.EnsembleDomain@1621e42</title>
<path fill="none" stroke="black" d="M715.429,-573.872C708.906,-510.89 701.598,-377.894 740,-275 766.266,-204.621 824.555,-138.495 863.569,-99.6298"/>
<polygon fill="black" stroke="black" points="866.422,-101.733 871.1,-92.227 861.515,-96.7413 866.422,-101.733"/>
</g>
<!-- fieldml.evaluator.composite.MappedImportOperation@787171&#45;&gt;fieldml.evaluator.ContinuousParameters@16897b2 -->
<g id="edge50" class="edge"><title>fieldml.evaluator.composite.MappedImportOperation@787171&#45;&gt;fieldml.evaluator.ContinuousParameters@16897b2</title>
<path fill="none" stroke="black" d="M694.977,-573.87C662.486,-526.956 605.303,-444.391 566.081,-387.759"/>
<polygon fill="black" stroke="black" points="568.759,-385.479 560.188,-379.251 563.004,-389.465 568.759,-385.479"/>
</g>
<!-- fieldml.evaluator.composite.MappedImportOperation@787171&#45;&gt;fieldml.evaluator.ContinuousParameters@a401c2 -->
<g id="edge48" class="edge"><title>fieldml.evaluator.composite.MappedImportOperation@787171&#45;&gt;fieldml.evaluator.ContinuousParameters@a401c2</title>
<path fill="none" stroke="black" d="M738.256,-573.87C763.006,-524.891 807.391,-437.051 836,-380.434"/>
<polygon fill="black" stroke="black" points="839.238,-381.785 840.625,-371.281 832.991,-378.628 839.238,-381.785"/>
</g>
<!-- fieldml.evaluator.composite.ContinuousCompositeEvaluator@15fea60 -->
<g id="node44" class="node"><title>fieldml.evaluator.composite.ContinuousCompositeEvaluator@15fea60</title>
<polygon fill="none" stroke="black" points="1474,-917 1224,-917 1224,-829 1474,-829 1474,-917"/>
<text text-anchor="start" x="1224" y="-900.4" font-family="Times New Roman,serif" font-size="14.00">ContinuousCompositeEvaluator</text>
<text text-anchor="start" x="1224" y="-884.4" font-family="Times New Roman,serif" font-size="14.00">parameterDomains: ... test_mesh.elements</text>
<text text-anchor="start" x="1224" y="-868.4" font-family="Times New Roman,serif" font-size="14.00">operations: ...</text>
<text text-anchor="start" x="1224" y="-852.4" font-family="Times New Roman,serif" font-size="14.00">name = test_mesh.element.p3</text>
<text text-anchor="start" x="1224" y="-836.4" font-family="Times New Roman,serif" font-size="14.00">valueDomain = library.weighting.1d</text>
</g>
<!-- fieldml.evaluator.composite.ContinuousCompositeEvaluator@15fea60&#45;&gt;fieldml.domain.EnsembleDomain@dc840f -->
<g id="edge56" class="edge"><title>fieldml.evaluator.composite.ContinuousCompositeEvaluator@15fea60&#45;&gt;fieldml.domain.EnsembleDomain@dc840f</title>
<path fill="none" stroke="black" d="M1468.66,-828.932C1589.95,-781.731 1765.5,-705.577 1807,-646 1868.46,-557.765 1870.67,-217.636 1869.6,-102.417"/>
<polygon fill="black" stroke="black" points="1873.09,-102.26 1869.49,-92.2983 1866.1,-102.335 1873.09,-102.26"/>
</g>
<!-- fieldml.evaluator.composite.ContinuousCompositeEvaluator@15fea60&#45;&gt;fieldml.domain.ContinuousDomain@ca8327 -->
<g id="edge66" class="edge"><title>fieldml.evaluator.composite.ContinuousCompositeEvaluator@15fea60&#45;&gt;fieldml.domain.ContinuousDomain@ca8327</title>
<path fill="none" stroke="black" d="M1223.96,-831.43C1220.95,-830.595 1217.96,-829.783 1215,-829 819.557,-724.347 571.899,-962.699 313,-646 260.819,-582.17 277.064,-349.201 313,-275 358.101,-181.873 466.457,-117.413 530.41,-85.9827"/>
<polygon fill="black" stroke="black" points="532.029,-89.0875 539.51,-81.5856 528.984,-82.7847 532.029,-89.0875"/>
</g>
<!-- fieldml.evaluator.composite.MappedImportOperation@1457cb -->
<g id="node47" class="node"><title>fieldml.evaluator.composite.MappedImportOperation@1457cb</title>
<polygon fill="none" stroke="black" points="1257,-646 989,-646 989,-574 1257,-574 1257,-646"/>
<text text-anchor="start" x="988.5" y="-629.4" font-family="Times New Roman,serif" font-size="14.00">MappedImportOperation</text>
<text text-anchor="start" x="988.5" y="-613.4" font-family="Times New Roman,serif" font-size="14.00">sourceField = test_mesh.dofs.z</text>
<text text-anchor="start" x="988.5" y="-597.4" font-family="Times New Roman,serif" font-size="14.00">weightings = test_mesh.element_dof_map.p3</text>
<text text-anchor="start" x="988.5" y="-581.4" font-family="Times New Roman,serif" font-size="14.00">iteratedDomain = test_mesh.dofs</text>
</g>
<!-- fieldml.evaluator.composite.ContinuousCompositeEvaluator@15fea60&#45;&gt;fieldml.evaluator.composite.MappedImportOperation@1457cb -->
<g id="edge58" class="edge"><title>fieldml.evaluator.composite.ContinuousCompositeEvaluator@15fea60&#45;&gt;fieldml.evaluator.composite.MappedImportOperation@1457cb</title>
<path fill="none" stroke="black" d="M1311.17,-828.98C1269.39,-780.36 1202.52,-702.54 1160.77,-653.949"/>
<polygon fill="black" stroke="black" points="1163.21,-651.419 1154.03,-646.115 1157.9,-655.981 1163.21,-651.419"/>
</g>
<!-- fieldml.evaluator.composite.MappedImportOperation@1457cb&#45;&gt;fieldml.domain.EnsembleDomain@1621e42 -->
<g id="edge64" class="edge"><title>fieldml.evaluator.composite.MappedImportOperation@1457cb&#45;&gt;fieldml.domain.EnsembleDomain@1621e42</title>
<path fill="none" stroke="black" d="M1108.15,-573.607C1089.59,-528.106 1056.88,-447.824 1029,-379 988.424,-278.825 940.846,-160.614 917.094,-101.55"/>
<polygon fill="black" stroke="black" points="920.332,-100.221 913.354,-92.2489 913.837,-102.833 920.332,-100.221"/>
</g>
<!-- fieldml.evaluator.composite.MappedImportOperation@1457cb&#45;&gt;fieldml.evaluator.ContinuousParameters@1201a25 -->
<g id="edge62" class="edge"><title>fieldml.evaluator.composite.MappedImportOperation@1457cb&#45;&gt;fieldml.evaluator.ContinuousParameters@1201a25</title>
<path fill="none" stroke="black" d="M1137.94,-573.87C1157.21,-527.245 1191.05,-445.407 1214.45,-388.809"/>
<polygon fill="black" stroke="black" points="1217.81,-389.83 1218.4,-379.251 1211.34,-387.155 1217.81,-389.83"/>
</g>
<!-- fieldml.evaluator.composite.MappedImportOperation@1457cb&#45;&gt;fieldml.evaluator.ContinuousParameters@a401c2 -->
<g id="edge60" class="edge"><title>fieldml.evaluator.composite.MappedImportOperation@1457cb&#45;&gt;fieldml.evaluator.ContinuousParameters@a401c2</title>
<path fill="none" stroke="black" d="M1089.81,-573.87C1044.34,-524.386 962.439,-435.236 910.492,-378.693"/>
<polygon fill="black" stroke="black" points="913.025,-376.277 903.682,-371.281 907.871,-381.013 913.025,-376.277"/>
</g>
<!-- fieldml.evaluator.ContinuousAggregateEvaluator@18fef3d -->
<g id="node52" class="node"><title>fieldml.evaluator.ContinuousAggregateEvaluator@18fef3d</title>
<polygon fill="none" stroke="black" points="1587,-1191 1111,-1191 1111,-1119 1587,-1119 1587,-1191"/>
<text text-anchor="start" x="1110.5" y="-1174.4" font-family="Times New Roman,serif" font-size="14.00">ContinuousAggregateEvaluator</text>
<text text-anchor="start" x="1110.5" y="-1158.4" font-family="Times New Roman,serif" font-size="14.00">sourceFields: ... test_mesh.element.p1 test_mesh.element.p2 test_mesh.element.p3</text>
<text text-anchor="start" x="1110.5" y="-1142.4" font-family="Times New Roman,serif" font-size="14.00">name = test_mesh.element.params</text>
<text text-anchor="start" x="1110.5" y="-1126.4" font-family="Times New Roman,serif" font-size="14.00">valueDomain = library.quadratic_bspline.parameters</text>
</g>
<!-- fieldml.evaluator.ContinuousAggregateEvaluator@18fef3d&#45;&gt;fieldml.evaluator.composite.ContinuousCompositeEvaluator@16f8cd0 -->
<g id="edge68" class="edge"><title>fieldml.evaluator.ContinuousAggregateEvaluator@18fef3d&#45;&gt;fieldml.evaluator.composite.ContinuousCompositeEvaluator@16f8cd0</title>
<path fill="none" stroke="black" d="M1383.21,-1119C1430.08,-1069.69 1514.5,-980.853 1568.05,-924.511"/>
<polygon fill="black" stroke="black" points="1570.71,-926.785 1575.07,-917.125 1565.64,-921.962 1570.71,-926.785"/>
</g>
<!-- fieldml.evaluator.ContinuousAggregateEvaluator@18fef3d&#45;&gt;fieldml.evaluator.composite.ContinuousCompositeEvaluator@c51355 -->
<g id="edge70" class="edge"><title>fieldml.evaluator.ContinuousAggregateEvaluator@18fef3d&#45;&gt;fieldml.evaluator.composite.ContinuousCompositeEvaluator@c51355</title>
<path fill="none" stroke="black" d="M1266.02,-1119C1150.07,-1068.7 939.32,-977.262 809.983,-921.15"/>
<polygon fill="black" stroke="black" points="810.996,-917.774 800.429,-917.005 808.21,-924.196 810.996,-917.774"/>
</g>
<!-- fieldml.evaluator.ContinuousAggregateEvaluator@18fef3d&#45;&gt;fieldml.evaluator.composite.ContinuousCompositeEvaluator@15fea60 -->
<g id="edge72" class="edge"><title>fieldml.evaluator.ContinuousAggregateEvaluator@18fef3d&#45;&gt;fieldml.evaluator.composite.ContinuousCompositeEvaluator@15fea60</title>
<path fill="none" stroke="black" d="M1349,-1119C1349,-1070.49 1349,-983.743 1349,-927.296"/>
<polygon fill="black" stroke="black" points="1352.5,-927.125 1349,-917.125 1345.5,-927.125 1352.5,-927.125"/>
</g>
<!-- fieldml.domain.ContinuousDomain@1bd4722 -->
<g id="node57" class="node"><title>fieldml.domain.ContinuousDomain@1bd4722</title>
<ellipse fill="none" stroke="black" cx="1024" cy="-873" rx="181.963" ry="18"/>
<text text-anchor="middle" x="1024" y="-868.4" font-family="Times New Roman,serif" font-size="14.00">fieldml.domain.ContinuousDomain@1bd4722</text>
</g>
<!-- fieldml.evaluator.ContinuousAggregateEvaluator@18fef3d&#45;&gt;fieldml.domain.ContinuousDomain@1bd4722 -->
<g id="edge74" class="edge"><title>fieldml.evaluator.ContinuousAggregateEvaluator@18fef3d&#45;&gt;fieldml.domain.ContinuousDomain@1bd4722</title>
<path fill="none" stroke="black" d="M1307.51,-1119C1240.5,-1060.85 1110.16,-947.756 1052.55,-897.773"/>
<polygon fill="black" stroke="black" points="1054.77,-895.061 1044.92,-891.151 1050.18,-900.348 1054.77,-895.061"/>
</g>
<!-- fieldml.evaluator.PiecewiseField@1891d8f -->
<g id="node58" class="node"><title>fieldml.evaluator.PiecewiseField@1891d8f</title>
<polygon fill="none" stroke="black" points="1851,-1717 1605,-1717 1605,-1613 1851,-1613 1851,-1717"/>
<text text-anchor="start" x="1605" y="-1700.4" font-family="Times New Roman,serif" font-size="14.00">PiecewiseField</text>
<text text-anchor="start" x="1605" y="-1684.4" font-family="Times New Roman,serif" font-size="14.00">meshDomain = test_mesh.domain</text>
<text text-anchor="start" x="1605" y="-1668.4" font-family="Times New Roman,serif" font-size="14.00">evaluatorList: ...</text>
<text text-anchor="start" x="1605" y="-1652.4" font-family="Times New Roman,serif" font-size="14.00">elementEvaluators: ...</text>
<text text-anchor="start" x="1605" y="-1636.4" font-family="Times New Roman,serif" font-size="14.00">name = test_mesh.coordinates.z</text>
<text text-anchor="start" x="1605" y="-1620.4" font-family="Times New Roman,serif" font-size="14.00">valueDomain = library.co&#45;ordinates.rc.1d</text>
</g>
<!-- fieldml.evaluator.PiecewiseField@1891d8f&#45;&gt;fieldml.domain.MeshDomain@1787038 -->
<g id="edge76" class="edge"><title>fieldml.evaluator.PiecewiseField@1891d8f&#45;&gt;fieldml.domain.MeshDomain@1787038</title>
<path fill="none" stroke="black" d="M1727.88,-1612.88C1728.55,-1554.14 1732.12,-1456.01 1747,-1373 1757.24,-1315.9 1777.13,-1252.55 1792.22,-1208.93"/>
<polygon fill="black" stroke="black" points="1795.56,-1209.97 1795.56,-1199.38 1788.95,-1207.66 1795.56,-1209.97"/>
</g>
<!-- fieldml.function.QuadraticBSpline@f3d6a5 -->
<g id="node61" class="node"><title>fieldml.function.QuadraticBSpline@f3d6a5</title>
<polygon fill="none" stroke="black" points="1617,-1429 1413,-1429 1413,-1373 1617,-1373 1617,-1429"/>
<text text-anchor="start" x="1413" y="-1412.4" font-family="Times New Roman,serif" font-size="14.00">QuadraticBSpline</text>
<text text-anchor="start" x="1413" y="-1396.4" font-family="Times New Roman,serif" font-size="14.00">dofs = test_mesh.element.params</text>
<text text-anchor="start" x="1413" y="-1380.4" font-family="Times New Roman,serif" font-size="14.00">name = bspline_line</text>
</g>
<!-- fieldml.evaluator.PiecewiseField@1891d8f&#45;&gt;fieldml.function.QuadraticBSpline@f3d6a5 -->
<g id="edge78" class="edge"><title>fieldml.evaluator.PiecewiseField@1891d8f&#45;&gt;fieldml.function.QuadraticBSpline@f3d6a5</title>
<path fill="none" stroke="black" d="M1685.92,-1612.84C1643.94,-1560.82 1580.58,-1482.29 1543.95,-1436.89"/>
<polygon fill="black" stroke="black" points="1546.66,-1434.66 1537.65,-1429.08 1541.21,-1439.06 1546.66,-1434.66"/>
</g>
<!-- fieldml.domain.ContinuousDomain@911f71 -->
<g id="node64" class="node"><title>fieldml.domain.ContinuousDomain@911f71</title>
<ellipse fill="none" stroke="black" cx="1931" cy="-1401" rx="175.084" ry="18"/>
<text text-anchor="middle" x="1931" y="-1396.4" font-family="Times New Roman,serif" font-size="14.00">fieldml.domain.ContinuousDomain@911f71</text>
</g>
<!-- fieldml.evaluator.PiecewiseField@1891d8f&#45;&gt;fieldml.domain.ContinuousDomain@911f71 -->
<g id="edge82" class="edge"><title>fieldml.evaluator.PiecewiseField@1891d8f&#45;&gt;fieldml.domain.ContinuousDomain@911f71</title>
<path fill="none" stroke="black" d="M1768.11,-1612.84C1811.11,-1556.91 1877.67,-1470.35 1910.81,-1427.25"/>
<polygon fill="black" stroke="black" points="1913.66,-1429.29 1916.98,-1419.23 1908.11,-1425.03 1913.66,-1429.29"/>
</g>
<!-- fieldml.function.QuadraticBSpline@f3d6a5&#45;&gt;fieldml.evaluator.ContinuousAggregateEvaluator@18fef3d -->
<g id="edge80" class="edge"><title>fieldml.function.QuadraticBSpline@f3d6a5&#45;&gt;fieldml.evaluator.ContinuousAggregateEvaluator@18fef3d</title>
<path fill="none" stroke="black" d="M1495.96,-1372.78C1467.38,-1330.43 1413.13,-1250.04 1379.14,-1199.66"/>
<polygon fill="black" stroke="black" points="1381.95,-1197.57 1373.45,-1191.24 1376.14,-1201.48 1381.95,-1197.57"/>
</g>
<!-- fieldml.evaluator.EnsembleParameters@1a73d3c -->
<g id="node65" class="node"><title>fieldml.evaluator.EnsembleParameters@1a73d3c</title>
<polygon fill="none" stroke="black" points="2327,-371 1935,-371 1935,-283 2327,-283 2327,-371"/>
<text text-anchor="start" x="1934.5" y="-354.4" font-family="Times New Roman,serif" font-size="14.00">EnsembleParameters</text>
<text text-anchor="start" x="1934.5" y="-338.4" font-family="Times New Roman,serif" font-size="14.00">parameterDomains: ... test_mesh.elements library.local_nodes.line.1</text>
<text text-anchor="start" x="1934.5" y="-322.4" font-family="Times New Roman,serif" font-size="14.00">entries: ...</text>
<text text-anchor="start" x="1934.5" y="-306.4" font-family="Times New Roman,serif" font-size="14.00">name = test_mesh.line_nodes</text>
<text text-anchor="start" x="1934.5" y="-290.4" font-family="Times New Roman,serif" font-size="14.00">valueDomain = test_mesh.nodes</text>
</g>
<!-- fieldml.evaluator.EnsembleParameters@1a73d3c&#45;&gt;fieldml.domain.EnsembleDomain@dc840f -->
<g id="edge84" class="edge"><title>fieldml.evaluator.EnsembleParameters@1a73d3c&#45;&gt;fieldml.domain.EnsembleDomain@dc840f</title>
<path fill="none" stroke="black" d="M2087.15,-282.98C2035.85,-231.483 1951.91,-147.23 1904.51,-99.6439"/>
<polygon fill="black" stroke="black" points="1906.76,-96.9463 1897.22,-92.332 1901.8,-101.887 1906.76,-96.9463"/>
</g>
<!-- fieldml.evaluator.EnsembleParameters@1a73d3c&#45;&gt;fieldml.domain.EnsembleDomain@b09e89 -->
<g id="edge88" class="edge"><title>fieldml.evaluator.EnsembleParameters@1a73d3c&#45;&gt;fieldml.domain.EnsembleDomain@b09e89</title>
<path fill="none" stroke="black" d="M2123.97,-282.98C2115.9,-232.437 2102.79,-150.34 2095.12,-102.325"/>
<polygon fill="black" stroke="black" points="2098.56,-101.655 2093.52,-92.332 2091.65,-102.759 2098.56,-101.655"/>
</g>
<!-- fieldml.domain.EnsembleDomain@a56a7c -->
<g id="node68" class="node"><title>fieldml.domain.EnsembleDomain@a56a7c</title>
<ellipse fill="none" stroke="black" cx="2353" cy="-64" rx="169.047" ry="18"/>
<text text-anchor="middle" x="2353" y="-59.4" font-family="Times New Roman,serif" font-size="14.00">fieldml.domain.EnsembleDomain@a56a7c</text>
</g>
<!-- fieldml.evaluator.EnsembleParameters@1a73d3c&#45;&gt;fieldml.domain.EnsembleDomain@a56a7c -->
<g id="edge86" class="edge"><title>fieldml.evaluator.EnsembleParameters@1a73d3c&#45;&gt;fieldml.domain.EnsembleDomain@a56a7c</title>
<path fill="none" stroke="black" d="M2168.16,-282.98C2214.75,-227.777 2293.12,-134.934 2331.08,-89.9655"/>
<polygon fill="black" stroke="black" points="2333.91,-92.0451 2337.68,-82.1459 2328.56,-87.5299 2333.91,-92.0451"/>
</g>
</g>
</svg>
